Coordinates
version=1
nRows=26
nColumns=27
inDegrees=yes

Units are S.I. units (second, meters, Newtons, ...)
If the header above contains a line with 'inDegrees', this indicates whether rotational values are in degrees (yes) or radians (no).

endheader
time	pelvis_rotation	pelvis_tilt	pelvis_list	pelvis_tx	pelvis_ty	pelvis_tz	hip_flexion_r	hip_adduction_r	hip_rotation_r	knee_angle_r	knee_rotation_r	knee_adduction_r	knee_angle_r_beta	ankle_angle_r	subtalar_angle_r	mtp_angle_r	hip_flexion_l	hip_adduction_l	hip_rotation_l	knee_angle_l	knee_rotation_l	knee_adduction_l	knee_angle_l_beta	ankle_angle_l	subtalar_angle_l	mtp_angle_l
      4.19000000	      6.25705481	    -26.11118935	      5.46375783	     -0.01932960	      0.65704354	     -1.14427520	     87.03512898	    -44.69361101	     -0.23280302	     76.46418500	      0.00000000	      9.62405203	      1.33455179	      9.11158919	      0.00000000	      0.00000000	     83.39580180	    -27.94532498	     -0.56919552	     71.80037881	      0.00000000	     -9.75538898	      1.25315301	     10.19272254	      0.00000000	      0.00000000
      4.19500000	      6.63272058	    -26.04453618	      5.53047371	     -0.01921096	      0.65538419	     -1.14457533	     87.20804575	    -45.30019335	     -0.35003276	     76.78755407	      0.00000000	      9.80372947	      1.34019564	      9.11608206	      0.00000000	      0.00000000	     83.72339753	    -27.70246767	     -0.37194990	     72.15012066	      0.00000000	     -9.87154831	      1.25925716	     10.29790914	      0.00000000	      0.00000000
      4.20000000	      6.64917775	    -26.19171587	      5.52763857	     -0.01963360	      0.65364913	     -1.14451651	     87.70160066	    -45.32756530	     -0.08272934	     77.08249009	      0.00000000	      9.80496516	      1.34534325	      9.15235227	      0.00000000	      0.00000000	     84.20056009	    -27.77064603	     -0.21679997	     72.49613214	      0.00000000	     -9.87420563	      1.26529620	     10.35185566	      0.00000000	      0.00000000
      4.20500000	      6.62951772	    -26.36280490	      5.30925638	     -0.02014959	      0.65208923	     -1.14417215	     87.92693978	    -45.20774803	     -0.10380381	     77.33136628	      0.00000000	      9.63430276	      1.34968696	      9.30655731	      0.00000000	      0.00000000	     84.80678672	    -27.82954415	      0.26701028	     72.80599229	      0.00000000	     -9.76539383	      1.27070428	     10.33316538	      0.00000000	      0.00000000
      4.21000000	      6.91591541	    -26.33941421	      5.51807698	     -0.02011378	      0.65039436	     -1.14451187	     88.38409860	    -45.69723503	      0.14603154	     77.68231421	      0.00000000	      9.80879527	      1.35581215	      9.32043262	      0.00000000	      0.00000000	     85.04818121	    -27.65078147	      0.23444664	     73.14238678	      0.00000000	     -9.87771364	      1.27657547	     10.42845923	      0.00000000	      0.00000000
      4.21500000	      6.64544254	    -26.64023524	      5.37644816	     -0.02091655	      0.64867721	     -1.14406090	     89.02124476	    -45.25564547	      0.53817444	     77.97536717	      0.00000000	      9.63913023	      1.36092689	      9.46950990	      0.00000000	      0.00000000	     85.66274315	    -27.96377258	      0.47087539	     73.46242618	      0.00000000	     -9.77314942	      1.28216121	     10.44062270	      0.00000000	      0.00000000
      4.22000000	      6.98904455	    -26.60078729	      5.56386344	     -0.02082024	      0.64704014	     -1.14440090	     89.40483430	    -45.81657417	      0.69483593	     78.30474461	      0.00000000	      9.81113467	      1.36667561	      9.41423242	      0.00000000	      0.00000000	     85.91129887	    -27.73069882	      0.49389886	     73.78416639	      0.00000000	     -9.88090754	      1.28777664	     10.52545197	      0.00000000	      0.00000000
      4.22500000	      6.63084949	    -26.89000700	      5.59392969	     -0.02164033	      0.64533676	     -1.14407869	     90.27999439	    -45.26300731	      1.45213953	     78.61866993	      0.00000000	      9.64282003	      1.37215464	      9.55118219	      0.00000000	      0.00000000	     86.34972998	    -28.10459248	      0.45495823	     74.08022779	      0.00000000	     -9.78015492	      1.29294389	     10.55466810	      0.00000000	      0.00000000
      4.23000000	      7.23280612	    -26.78819069	      5.43111316	     -0.02122379	      0.64392772	     -1.14424177	     89.95683570	    -46.13992673	      0.73478221	     78.84170533	      0.00000000	      9.81355560	      1.37604735	      9.46773556	      0.00000000	      0.00000000	     86.84323225	    -27.64871607	      1.06171455	     74.40531102	      0.00000000	     -9.88403912	      1.29861766	     10.60666037	      0.00000000	      0.00000000
      4.23500000	      6.93794509	    -27.11329933	      5.46847434	     -0.02210038	      0.64213352	     -1.14388820	     90.86631094	    -45.64681954	      1.46971515	     79.18293923	      0.00000000	      9.64837639	      1.38200300	      9.74171629	      0.00000000	      0.00000000	     87.37232152	    -27.96686428	      1.07784943	     74.71740351	      0.00000000	     -9.78493746	      1.30406470	     10.60976204	      0.00000000	      0.00000000
      4.24000000	      7.31700469	    -27.10708596	      5.60322109	     -0.02197449	      0.64053189	     -1.14417971	     91.21467009	    -46.23441320	      1.52849855	     79.49756287	      0.00000000	      9.81587554	      1.38749422	      9.64237393	      0.00000000	      0.00000000	     87.69172593	    -27.70228250	      1.18587865	     75.03229201	      0.00000000	     -9.88721316	      1.30956054	     10.69470442	      0.00000000	      0.00000000
      4.24500000	      7.15780982	    -27.32289939	      5.38713895	     -0.02249996	      0.63892774	     -1.14372478	     91.53283829	    -45.93531819	      1.64374992	     79.74660874	      0.00000000	      9.65463633	      1.39184089	      9.96687516	      0.00000000	      0.00000000	     88.29675824	    -27.91077456	      1.56741838	     75.33950498	      0.00000000	     -9.79109877	      1.31492242	     10.67389999	      0.00000000	      0.00000000
      4.25000000	      7.44129894	    -27.36222739	      5.59138334	     -0.02252146	      0.63724014	     -1.14398809	     92.09484993	    -46.38051340	      1.94517754	     80.09816378	      0.00000000	      9.81854275	      1.39797668	      9.86978944	      0.00000000	      0.00000000	     88.58999496	    -27.72828988	      1.55219203	     75.65407446	      0.00000000	     -9.89030632	      1.32041269	     10.78051416	      0.00000000	      0.00000000
      4.25500000	      6.91924676	    -27.59358614	      5.83571808	     -0.02337131	      0.63547350	     -1.14370478	     93.28303825	    -45.63568983	      3.17770243	     80.45627350	      0.00000000	      9.65497956	      1.40422688	      9.88781114	      0.00000000	      0.00000000	     88.75071724	    -28.26407860	      1.15205701	     75.91037388	      0.00000000	     -9.79705921	      1.32488596	     10.80077369	      0.00000000	      0.00000000
      4.26000000	      7.56987664	    -27.57647974	      5.65735812	     -0.02304997	      0.63392473	     -1.14386478	     93.04599889	    -46.55718844	      2.47201701	     80.70136542	      0.00000000	      9.82075985	      1.40850454	      9.99056494	      0.00000000	      0.00000000	     89.39264394	    -27.73284323	      1.83120246	     76.26220277	      0.00000000	     -9.89299452	      1.33102653	     10.85052527	      0.00000000	      0.00000000
      4.26500000	      7.59572531	    -27.66760110	      5.77510635	     -0.02331886	      0.63219439	     -1.14387370	     93.65649466	    -46.58514183	      2.94641912	     81.02619261	      0.00000000	      9.82195701	      1.41417384	     10.04689123	      0.00000000	      0.00000000	     89.70334466	    -27.77178072	      1.83591668	     76.56624786	      0.00000000	     -9.89453030	      1.33633312	     10.92352013	      0.00000000	      0.00000000
      4.27000000	      7.63614431	    -27.79297753	      5.84328258	     -0.02363122	      0.63040911	     -1.14383512	     94.24169441	    -46.63874356	      3.31117620	     81.35558049	      0.00000000	      9.82308598	      1.41992274	     10.10831134	      0.00000000	      0.00000000	     90.11398141	    -27.79751746	      1.93164578	     76.89246525	      0.00000000	     -9.89526125	      1.34202669	     10.96990154	      0.00000000	      0.00000000
      4.27500000	      7.13967135	    -27.99594890	      5.94046764	     -0.02439738	      0.62860339	     -1.14345426	     95.15264605	    -45.91154247	      4.24195087	     81.68057158	      0.00000000	      9.66440582	      1.42559491	     10.17213125	      0.00000000	      0.00000000	     90.36233514	    -28.31820156	      1.75189191	     77.16448503	      0.00000000	     -9.80684956	      1.34677433	     11.00522040	      0.00000000	      0.00000000
      4.28000000	      7.69284070	    -27.95137576	      5.93130224	     -0.02413244	      0.62686097	     -1.14370400	     95.23569960	    -46.71803458	      3.98278851	     81.98739476	      0.00000000	      9.82528210	      1.43094998	     10.23041470	      0.00000000	      0.00000000	     90.83755366	    -27.87160199	      2.16612306	     77.52107098	      0.00000000	     -9.89814333	      1.35299793	     11.06716839	      0.00000000	      0.00000000
      4.28500000	      7.20903341	    -28.13274111	      5.96434917	     -0.02485835	      0.62503023	     -1.14331682	     96.02507160	    -46.01048206	      4.78243256	     82.30342787	      0.00000000	      9.66843250	      1.43646580	     10.30870030	      0.00000000	      0.00000000	     91.11934951	    -28.37219444	      2.08128927	     77.81113908	      0.00000000	     -9.81103143	      1.35806057	     11.12455785	      0.00000000	      0.00000000
      4.29000000	      7.90942257	    -28.08330790	      5.69751222	     -0.02451330	      0.62329692	     -1.14343969	     95.67983787	    -47.02348566	      3.95498284	     82.57292280	      0.00000000	      9.82793279	      1.44116938	     10.49928565	      0.00000000	      0.00000000	     91.83167903	    -27.76370221	      2.90388336	     78.19969392	      0.00000000	     -9.90047791	      1.36484213	     11.15990472	      0.00000000	      0.00000000
      4.29500000	      7.82921707	    -28.17967292	      5.97490557	     -0.02492398	      0.62130906	     -1.14352253	     96.62366607	    -46.89391068	      4.83942949	     82.94839892	      0.00000000	      9.82837185	      1.44772267	     10.44122125	      0.00000000	      0.00000000	     92.04072278	    -27.90207329	      2.69366566	     78.51937842	      0.00000000	     -9.90173462	      1.37042168	     11.22334840	      0.00000000	      0.00000000
      4.30000000	      7.94685799	    -28.18667443	      5.94345201	     -0.02505249	      0.61944414	     -1.14348141	     96.91518483	    -47.06254021	      4.98414525	     83.26025148	      0.00000000	      9.82999501	      1.45316552	     10.59791902	      0.00000000	      0.00000000	     92.42485792	    -27.82925211	      2.96706264	     78.86160692	      0.00000000	     -9.90257839	      1.37639469	     11.28399653	      0.00000000	      0.00000000
      4.30500000	      7.37966451	    -28.35921443	      6.05610856	     -0.02580784	      0.61744917	     -1.14312806	     97.85195012	    -46.23432141	      5.98240128	     83.61549612	      0.00000000	      9.67700848	      1.45936571	     10.65076007	      0.00000000	      0.00000000	     92.64038669	    -28.42562170	      2.76534712	     79.16723465	      0.00000000	     -9.81962041	      1.38172890	     11.34224184	      0.00000000	      0.00000000
      4.31000000	      8.03239212	    -28.22170123	      5.93651810	     -0.02536023	      0.61561943	     -1.14339293	     97.67933458	    -47.20953455	      5.50530646	     83.91078541	      0.00000000	      9.83219681	      1.46451948	     10.76837096	      0.00000000	      0.00000000	     93.12864705	    -27.84000841	      3.36511188	     79.55104777	      0.00000000	     -9.90484234	      1.38842771	     11.42728149	      0.00000000	      0.00000000
      4.31500000	      7.45745273	    -28.38164059	      6.12304611	     -0.02612190	      0.61355147	     -1.14310252	     98.71041773	    -46.35020258	      6.64001987	     84.27770457	      0.00000000	      9.68123707	      1.47092343	     10.85067342	      0.00000000	      0.00000000	     93.28821860	    -28.44485733	      3.08119256	     79.85715788	      0.00000000	     -9.82358012	      1.39377034	     11.47946029	      0.00000000	      0.00000000
